{
    "asset" : {
        "generator" : "Khronos glTF Blender I/O v1.7.33",
        "version" : "2.0"
    },
    "scene" : 0,
    "scenes" : [
        {
            "name" : "Scene",
            "nodes" : [
                0,
                1,
                2,
                3,
                4,
                5,
                6,
                7,
                8,
                9
            ]
        }
    ],
    "nodes" : [
        {
            "mesh" : 0,
            "name" : "cannon_01_frame"
        },
        {
            "mesh" : 1,
            "name" : "cannon_01_pusherblock",
            "translation" : [
                0,
                0.33888885378837585,
                -0.5551145672798157
            ]
        },
        {
            "mesh" : 2,
            "name" : "cannon_01_barrel",
            "translation" : [
                0,
                0.6068499088287354,
                0.4248545169830322
            ]
        },
        {
            "mesh" : 3,
            "name" : "cannon_01_wheel_04",
            "translation" : [
                0.3787345290184021,
                0.1507422924041748,
                -0.45989635586738586
            ]
        },
        {
            "mesh" : 4,
            "name" : "cannon_01_ball_01",
            "translation" : [
                -0.6914291977882385,
                0.07118421792984009,
                0.4790395498275757
            ]
        },
        {
            "mesh" : 5,
            "name" : "cannon_01_ball_02",
            "translation" : [
                -0.5864111185073853,
                0.0711250901222229,
                0.010562650859355927
            ]
        },
        {
            "mesh" : 6,
            "name" : "cannon_01_ball_03",
            "translation" : [
                -0.6940789818763733,
                0.0707574337720871,
                -0.43702733516693115
            ]
        },
        {
            "mesh" : 7,
            "name" : "cannon_01_wheel_01",
            "translation" : [
                -0.37873056530952454,
                0.1507381796836853,
                0.472749263048172
            ]
        },
        {
            "mesh" : 8,
            "name" : "cannon_01_wheel_02",
            "translation" : [
                -0.3787308633327484,
                0.15075135231018066,
                -0.4598788619041443
            ]
        },
        {
            "mesh" : 9,
            "name" : "cannon_01_wheel_03",
            "translation" : [
                0.378734827041626,
                0.15075169503688812,
                0.4727649390697479
            ]
        }
    ],
    "materials" : [
        {
            "doubleSided" : true,
            "name" : "cannon_01",
            "normalTexture" : {
                "index" : 0
            },
            "pbrMetallicRoughness" : {
                "baseColorTexture" : {
                    "index" : 1
                },
                "metallicRoughnessTexture" : {
                    "index" : 2
                }
            }
        }
    ],
    "meshes" : [
        {
            "name" : "Cube.027",
            "primitives" : [
                {
                    "attributes" : {
                        "POSITION" : 0,
                        "NORMAL" : 1,
                        "TANGENT" : 2,
                        "TEXCOORD_0" : 3
                    },
                    "indices" : 4,
                    "material" : 0
                }
            ]
        },
        {
            "name" : "Cube.003",
            "primitives" : [
                {
                    "attributes" : {
                        "POSITION" : 5,
                        "NORMAL" : 6,
                        "TANGENT" : 7,
                        "TEXCOORD_0" : 8
                    },
                    "indices" : 9,
                    "material" : 0
                }
            ]
        },
        {
            "name" : "Cylinder.016",
            "primitives" : [
                {
                    "attributes" : {
                        "POSITION" : 10,
                        "NORMAL" : 11,
                        "TANGENT" : 12,
                        "TEXCOORD_0" : 13
                    },
                    "indices" : 14,
                    "material" : 0
                }
            ]
        },
        {
            "name" : "Cylinder.039",
            "primitives" : [
                {
                    "attributes" : {
                        "POSITION" : 15,
                        "NORMAL" : 16,
                        "TANGENT" : 17,
                        "TEXCOORD_0" : 18
                    },
                    "indices" : 19,
                    "material" : 0
                }
            ]
        },
        {
            "name" : "Cube.025",
            "primitives" : [
                {
                    "attributes" : {
                        "POSITION" : 20,
                        "NORMAL" : 21,
                        "TANGENT" : 22,
                        "TEXCOORD_0" : 23
                    },
                    "indices" : 24,
                    "material" : 0
                }
            ]
        },
        {
            "name" : "Cube.068",
            "primitives" : [
                {
                    "attributes" : {
                        "POSITION" : 25,
                        "NORMAL" : 26,
                        "TANGENT" : 27,
                        "TEXCOORD_0" : 28
                    },
                    "indices" : 29,
                    "material" : 0
                }
            ]
        },
        {
            "name" : "Cube.088",
            "primitives" : [
                {
                    "attributes" : {
                        "POSITION" : 30,
                        "NORMAL" : 31,
                        "TANGENT" : 32,
                        "TEXCOORD_0" : 33
                    },
                    "indices" : 34,
                    "material" : 0
                }
            ]
        },
        {
            "name" : "Cylinder.001",
            "primitives" : [
                {
                    "attributes" : {
                        "POSITION" : 35,
                        "NORMAL" : 36,
                        "TANGENT" : 37,
                        "TEXCOORD_0" : 38
                    },
                    "indices" : 39,
                    "material" : 0
                }
            ]
        },
        {
            "name" : "Cylinder.002",
            "primitives" : [
                {
                    "attributes" : {
                        "POSITION" : 40,
                        "NORMAL" : 41,
                        "TANGENT" : 42,
                        "TEXCOORD_0" : 43
                    },
                    "indices" : 44,
                    "material" : 0
                }
            ]
        },
        {
            "name" : "Cylinder.003",
            "primitives" : [
                {
                    "attributes" : {
                        "POSITION" : 45,
                        "NORMAL" : 46,
                        "TANGENT" : 47,
                        "TEXCOORD_0" : 48
                    },
                    "indices" : 49,
                    "material" : 0
                }
            ]
        }
    ],
    "textures" : [
        {
            "sampler" : 0,
            "source" : 0
        },
        {
            "sampler" : 0,
            "source" : 1
        },
        {
            "sampler" : 0,
            "source" : 2
        }
    ],
    "images" : [
        {
            "mimeType" : "image/jpeg",
            "name" : "cannon_01_nor_gl_4k",
            "uri" : "cannon_01_nor_gl_4k.jpg"
        },
        {
            "mimeType" : "image/jpeg",
            "name" : "cannon_01_diff_4k",
            "uri" : "cannon_01_diff_4k.jpg"
        },
        {
            "mimeType" : "image/jpeg",
            "name" : "cannon_01_arm_4k",
            "uri" : "cannon_01_arm_4k.jpg"
        }
    ],
    "accessors" : [
        {
            "bufferView" : 0,
            "componentType" : 5126,
            "count" : 20572,
            "max" : [
                0.46903878450393677,
                0.6716710329055786,
                0.6957029104232788
            ],
            "min" : [
                -0.46903878450393677,
                0.07858051359653473,
                -0.680999755859375
            ],
            "type" : "VEC3"
        },
        {
            "bufferView" : 1,
            "componentType" : 5126,
            "count" : 20572,
            "type" : "VEC3"
        },
        {
            "bufferView" : 2,
            "componentType" : 5126,
            "count" : 20572,
            "type" : "VEC4"
        },
        {
            "bufferView" : 3,
            "componentType" : 5126,
            "count" : 20572,
            "type" : "VEC2"
        },
        {
            "bufferView" : 4,
            "componentType" : 5123,
            "count" : 91422,
            "type" : "SCALAR"
        },
        {
            "bufferView" : 5,
            "componentType" : 5126,
            "count" : 376,
            "max" : [
                0.05591828376054764,
                0.06372874230146408,
                0.29880568385124207
            ],
            "min" : [
                -0.05591818690299988,
                -0.05739845335483551,
                -0.11048121005296707
            ],
            "type" : "VEC3"
        },
        {
            "bufferView" : 6,
            "componentType" : 5126,
            "count" : 376,
            "type" : "VEC3"
        },
        {
            "bufferView" : 7,
            "componentType" : 5126,
            "count" : 376,
            "type" : "VEC4"
        },
        {
            "bufferView" : 8,
            "componentType" : 5126,
            "count" : 376,
            "type" : "VEC2"
        },
        {
            "bufferView" : 9,
            "componentType" : 5123,
            "count" : 1548,
            "type" : "SCALAR"
        },
        {
            "bufferView" : 10,
            "componentType" : 5126,
            "count" : 3452,
            "max" : [
                0.27582621574401855,
                0.25202763080596924,
                1.1969811916351318
            ],
            "min" : [
                -0.2755846381187439,
                -0.25961005687713623,
                -1.0257176160812378
            ],
            "type" : "VEC3"
        },
        {
            "bufferView" : 11,
            "componentType" : 5126,
            "count" : 3452,
            "type" : "VEC3"
        },
        {
            "bufferView" : 12,
            "componentType" : 5126,
            "count" : 3452,
            "type" : "VEC4"
        },
        {
            "bufferView" : 13,
            "componentType" : 5126,
            "count" : 3452,
            "type" : "VEC2"
        },
        {
            "bufferView" : 14,
            "componentType" : 5123,
            "count" : 15810,
            "type" : "SCALAR"
        },
        {
            "bufferView" : 15,
            "componentType" : 5126,
            "count" : 668,
            "max" : [
                0.03450985252857208,
                0.1506969928741455,
                0.15051360428333282
            ],
            "min" : [
                -0.043984849005937576,
                -0.15019121766090393,
                -0.1499357968568802
            ],
            "type" : "VEC3"
        },
        {
            "bufferView" : 16,
            "componentType" : 5126,
            "count" : 668,
            "type" : "VEC3"
        },
        {
            "bufferView" : 17,
            "componentType" : 5126,
            "count" : 668,
            "type" : "VEC4"
        },
        {
            "bufferView" : 18,
            "componentType" : 5126,
            "count" : 668,
            "type" : "VEC2"
        },
        {
            "bufferView" : 19,
            "componentType" : 5123,
            "count" : 2160,
            "type" : "SCALAR"
        },
        {
            "bufferView" : 20,
            "componentType" : 5126,
            "count" : 486,
            "max" : [
                0.0695313885807991,
                0.06917031109333038,
                0.0706089586019516
            ],
            "min" : [
                -0.0695313811302185,
                -0.06917031109333038,
                -0.0706089586019516
            ],
            "type" : "VEC3"
        },
        {
            "bufferView" : 21,
            "componentType" : 5126,
            "count" : 486,
            "type" : "VEC3"
        },
        {
            "bufferView" : 22,
            "componentType" : 5126,
            "count" : 486,
            "type" : "VEC4"
        },
        {
            "bufferView" : 23,
            "componentType" : 5126,
            "count" : 486,
            "type" : "VEC2"
        },
        {
            "bufferView" : 24,
            "componentType" : 5123,
            "count" : 2304,
            "type" : "SCALAR"
        },
        {
            "bufferView" : 25,
            "componentType" : 5126,
            "count" : 486,
            "max" : [
                0.07098639011383057,
                0.07013815641403198,
                0.070314422249794
            ],
            "min" : [
                -0.07098639011383057,
                -0.07013815641403198,
                -0.070314422249794
            ],
            "type" : "VEC3"
        },
        {
            "bufferView" : 26,
            "componentType" : 5126,
            "count" : 486,
            "type" : "VEC3"
        },
        {
            "bufferView" : 27,
            "componentType" : 5126,
            "count" : 486,
            "type" : "VEC4"
        },
        {
            "bufferView" : 28,
            "componentType" : 5126,
            "count" : 486,
            "type" : "VEC2"
        },
        {
            "bufferView" : 29,
            "componentType" : 5123,
            "count" : 2304,
            "type" : "SCALAR"
        },
        {
            "bufferView" : 30,
            "componentType" : 5126,
            "count" : 486,
            "max" : [
                0.07020902633666992,
                0.06976547837257385,
                0.07109614461660385
            ],
            "min" : [
                -0.07020902633666992,
                -0.06976547837257385,
                -0.07109614461660385
            ],
            "type" : "VEC3"
        },
        {
            "bufferView" : 31,
            "componentType" : 5126,
            "count" : 486,
            "type" : "VEC3"
        },
        {
            "bufferView" : 32,
            "componentType" : 5126,
            "count" : 486,
            "type" : "VEC4"
        },
        {
            "bufferView" : 33,
            "componentType" : 5126,
            "count" : 486,
            "type" : "VEC2"
        },
        {
            "bufferView" : 34,
            "componentType" : 5123,
            "count" : 2304,
            "type" : "SCALAR"
        },
        {
            "bufferView" : 35,
            "componentType" : 5126,
            "count" : 668,
            "max" : [
                0.043980810791254044,
                0.15097451210021973,
                0.14957930147647858
            ],
            "min" : [
                -0.034513745456933975,
                -0.15067245066165924,
                -0.1510923057794571
            ],
            "type" : "VEC3"
        },
        {
            "bufferView" : 36,
            "componentType" : 5126,
            "count" : 668,
            "type" : "VEC3"
        },
        {
            "bufferView" : 37,
            "componentType" : 5126,
            "count" : 668,
            "type" : "VEC4"
        },
        {
            "bufferView" : 38,
            "componentType" : 5126,
            "count" : 668,
            "type" : "VEC2"
        },
        {
            "bufferView" : 39,
            "componentType" : 5123,
            "count" : 2160,
            "type" : "SCALAR"
        },
        {
            "bufferView" : 40,
            "componentType" : 5126,
            "count" : 668,
            "max" : [
                0.04398082569241524,
                0.1499210000038147,
                0.15033893287181854
            ],
            "min" : [
                -0.03451375663280487,
                -0.14998100697994232,
                -0.15131641924381256
            ],
            "type" : "VEC3"
        },
        {
            "bufferView" : 41,
            "componentType" : 5126,
            "count" : 668,
            "type" : "VEC3"
        },
        {
            "bufferView" : 42,
            "componentType" : 5126,
            "count" : 668,
            "type" : "VEC4"
        },
        {
            "bufferView" : 43,
            "componentType" : 5126,
            "count" : 668,
            "type" : "VEC2"
        },
        {
            "bufferView" : 44,
            "componentType" : 5123,
            "count" : 2160,
            "type" : "SCALAR"
        },
        {
            "bufferView" : 45,
            "componentType" : 5126,
            "count" : 666,
            "max" : [
                0.03450979292392731,
                0.14992065727710724,
                0.15033920109272003
            ],
            "min" : [
                -0.0439847856760025,
                -0.14998134970664978,
                -0.15131603181362152
            ],
            "type" : "VEC3"
        },
        {
            "bufferView" : 46,
            "componentType" : 5126,
            "count" : 666,
            "type" : "VEC3"
        },
        {
            "bufferView" : 47,
            "componentType" : 5126,
            "count" : 666,
            "type" : "VEC4"
        },
        {
            "bufferView" : 48,
            "componentType" : 5126,
            "count" : 666,
            "type" : "VEC2"
        },
        {
            "bufferView" : 49,
            "componentType" : 5123,
            "count" : 2160,
            "type" : "SCALAR"
        }
    ],
    "bufferViews" : [
        {
            "buffer" : 0,
            "byteLength" : 246864,
            "byteOffset" : 0
        },
        {
            "buffer" : 0,
            "byteLength" : 246864,
            "byteOffset" : 246864
        },
        {
            "buffer" : 0,
            "byteLength" : 329152,
            "byteOffset" : 493728
        },
        {
            "buffer" : 0,
            "byteLength" : 164576,
            "byteOffset" : 822880
        },
        {
            "buffer" : 0,
            "byteLength" : 182844,
            "byteOffset" : 987456
        },
        {
            "buffer" : 0,
            "byteLength" : 4512,
            "byteOffset" : 1170300
        },
        {
            "buffer" : 0,
            "byteLength" : 4512,
            "byteOffset" : 1174812
        },
        {
            "buffer" : 0,
            "byteLength" : 6016,
            "byteOffset" : 1179324
        },
        {
            "buffer" : 0,
            "byteLength" : 3008,
            "byteOffset" : 1185340
        },
        {
            "buffer" : 0,
            "byteLength" : 3096,
            "byteOffset" : 1188348
        },
        {
            "buffer" : 0,
            "byteLength" : 41424,
            "byteOffset" : 1191444
        },
        {
            "buffer" : 0,
            "byteLength" : 41424,
            "byteOffset" : 1232868
        },
        {
            "buffer" : 0,
            "byteLength" : 55232,
            "byteOffset" : 1274292
        },
        {
            "buffer" : 0,
            "byteLength" : 27616,
            "byteOffset" : 1329524
        },
        {
            "buffer" : 0,
            "byteLength" : 31620,
            "byteOffset" : 1357140
        },
        {
            "buffer" : 0,
            "byteLength" : 8016,
            "byteOffset" : 1388760
        },
        {
            "buffer" : 0,
            "byteLength" : 8016,
            "byteOffset" : 1396776
        },
        {
            "buffer" : 0,
            "byteLength" : 10688,
            "byteOffset" : 1404792
        },
        {
            "buffer" : 0,
            "byteLength" : 5344,
            "byteOffset" : 1415480
        },
        {
            "buffer" : 0,
            "byteLength" : 4320,
            "byteOffset" : 1420824
        },
        {
            "buffer" : 0,
            "byteLength" : 5832,
            "byteOffset" : 1425144
        },
        {
            "buffer" : 0,
            "byteLength" : 5832,
            "byteOffset" : 1430976
        },
        {
            "buffer" : 0,
            "byteLength" : 7776,
            "byteOffset" : 1436808
        },
        {
            "buffer" : 0,
            "byteLength" : 3888,
            "byteOffset" : 1444584
        },
        {
            "buffer" : 0,
            "byteLength" : 4608,
            "byteOffset" : 1448472
        },
        {
            "buffer" : 0,
            "byteLength" : 5832,
            "byteOffset" : 1453080
        },
        {
            "buffer" : 0,
            "byteLength" : 5832,
            "byteOffset" : 1458912
        },
        {
            "buffer" : 0,
            "byteLength" : 7776,
            "byteOffset" : 1464744
        },
        {
            "buffer" : 0,
            "byteLength" : 3888,
            "byteOffset" : 1472520
        },
        {
            "buffer" : 0,
            "byteLength" : 4608,
            "byteOffset" : 1476408
        },
        {
            "buffer" : 0,
            "byteLength" : 5832,
            "byteOffset" : 1481016
        },
        {
            "buffer" : 0,
            "byteLength" : 5832,
            "byteOffset" : 1486848
        },
        {
            "buffer" : 0,
            "byteLength" : 7776,
            "byteOffset" : 1492680
        },
        {
            "buffer" : 0,
            "byteLength" : 3888,
            "byteOffset" : 1500456
        },
        {
            "buffer" : 0,
            "byteLength" : 4608,
            "byteOffset" : 1504344
        },
        {
            "buffer" : 0,
            "byteLength" : 8016,
            "byteOffset" : 1508952
        },
        {
            "buffer" : 0,
            "byteLength" : 8016,
            "byteOffset" : 1516968
        },
        {
            "buffer" : 0,
            "byteLength" : 10688,
            "byteOffset" : 1524984
        },
        {
            "buffer" : 0,
            "byteLength" : 5344,
            "byteOffset" : 1535672
        },
        {
            "buffer" : 0,
            "byteLength" : 4320,
            "byteOffset" : 1541016
        },
        {
            "buffer" : 0,
            "byteLength" : 8016,
            "byteOffset" : 1545336
        },
        {
            "buffer" : 0,
            "byteLength" : 8016,
            "byteOffset" : 1553352
        },
        {
            "buffer" : 0,
            "byteLength" : 10688,
            "byteOffset" : 1561368
        },
        {
            "buffer" : 0,
            "byteLength" : 5344,
            "byteOffset" : 1572056
        },
        {
            "buffer" : 0,
            "byteLength" : 4320,
            "byteOffset" : 1577400
        },
        {
            "buffer" : 0,
            "byteLength" : 7992,
            "byteOffset" : 1581720
        },
        {
            "buffer" : 0,
            "byteLength" : 7992,
            "byteOffset" : 1589712
        },
        {
            "buffer" : 0,
            "byteLength" : 10656,
            "byteOffset" : 1597704
        },
        {
            "buffer" : 0,
            "byteLength" : 5328,
            "byteOffset" : 1608360
        },
        {
            "buffer" : 0,
            "byteLength" : 4320,
            "byteOffset" : 1613688
        }
    ],
    "samplers" : [
        {
            "magFilter" : 9729,
            "minFilter" : 9987
        }
    ],
    "buffers" : [
        {
            "byteLength" : 1618008,
            "uri" : "cannon_01_4k.bin"
        }
    ]
}
