{
	"asset":{
		"generator":"Khronos glTF Blender I/O v4.2.60",
		"version":"2.0"
	},
	"scene":0,
	"scenes":[
		{
			"name":"Scene",
			"nodes":[
				0
			]
		}
	],
	"nodes":[
		{
			"mesh":0,
			"name":"Cube"
		}
	],
	"materials":[
		{
			"doubleSided":true,
			"name":"Material",
			"pbrMetallicRoughness":{
				"baseColorFactor":[
					0.800000011920929,
					0.800000011920929,
					0.800000011920929,
					1
				],
				"metallicFactor":0,
				"roughnessFactor":0.5
			}
		}
	],
	"meshes":[
		{
			"name":"Cube",
			"primitives":[
				{
					"attributes":{
						"POSITION":0,
						"NORMAL":1,
						"TEXCOORD_0":2,
						"TANGENT":3
					},
					"indices":4,
					"material":0
				}
			]
		}
	],
	"accessors":[
		{
			"bufferView":0,
			"componentType":5126,
			"count":20,
			"max":[
				1,
				1,
				1
			],
			"min":[
				-1,
				-1,
				-1
			],
			"type":"VEC3"
		},
		{
			"bufferView":1,
			"componentType":5126,
			"count":20,
			"type":"VEC3"
		},
		{
			"bufferView":2,
			"componentType":5126,
			"count":20,
			"type":"VEC2"
		},
		{
			"bufferView":3,
			"componentType":5126,
			"count":20,
			"type":"VEC4"
		},
		{
			"bufferView":4,
			"componentType":5123,
			"count":30,
			"type":"SCALAR"
		}
	],
	"bufferViews":[
		{
			"buffer":0,
			"byteLength":240,
			"byteOffset":0,
			"target":34962
		},
		{
			"buffer":0,
			"byteLength":240,
			"byteOffset":240,
			"target":34962
		},
		{
			"buffer":0,
			"byteLength":160,
			"byteOffset":480,
			"target":34962
		},
		{
			"buffer":0,
			"byteLength":320,
			"byteOffset":640,
			"target":34962
		},
		{
			"buffer":0,
			"byteLength":60,
			"byteOffset":960,
			"target":34963
		}
	],
	"buffers":[
		{
			"byteLength":1020,
			"uri":"SSAOTestCube.bin"
		}
	]
}
