{
	"asset":{
		"generator":"Khronos glTF Blender I/O v4.2.60",
		"version":"2.0"
	},
	"scene":0,
	"scenes":[
		{
			"name":"Scene",
			"nodes":[
				7,
				15,
				23
			]
		}
	],
	"nodes":[
		{
			"mesh":0,
			"name":"Chassi0",
			"translation":[
				0.5913571119308472,
				0.2344437539577484,
				0
			]
		},
		{
			"mesh":1,
			"name":"Wheel10",
			"translation":[
				0,
				0,
				-8.600239753723145
			]
		},
		{
			"mesh":2,
			"name":"Wheel20",
			"translation":[
				0,
				0,
				-8.600239753723145
			]
		},
		{
			"mesh":3,
			"name":"Wheel30",
			"translation":[
				0,
				0,
				-8.600239753723145
			]
		},
		{
			"mesh":4,
			"name":"Wheel40",
			"translation":[
				0,
				0,
				-8.600239753723145
			]
		},
		{
			"mesh":5,
			"name":"Wheel50",
			"translation":[
				0,
				0,
				-8.600239753723145
			]
		},
		{
			"mesh":6,
			"name":"Wheel60",
			"translation":[
				0,
				0,
				-8.600239753723145
			]
		},
		{
			"children":[
				0,
				1,
				2,
				3,
				4,
				5,
				6
			],
			"name":"Rover_LOD0",
			"translation":[
				0,
				0,
				8.600239753723145
			]
		},
		{
			"mesh":7,
			"name":"Chassi1"
		},
		{
			"mesh":8,
			"name":"Wheel11",
			"translation":[
				0,
				0,
				-4.230647087097168
			]
		},
		{
			"mesh":9,
			"name":"Wheel21",
			"translation":[
				0,
				0,
				-4.230647087097168
			]
		},
		{
			"mesh":10,
			"name":"Wheel31",
			"translation":[
				0,
				0,
				-4.230647087097168
			]
		},
		{
			"mesh":11,
			"name":"Wheel41",
			"translation":[
				0,
				0,
				-4.230647087097168
			]
		},
		{
			"mesh":12,
			"name":"Wheel51",
			"translation":[
				0,
				0,
				-4.230647087097168
			]
		},
		{
			"mesh":13,
			"name":"Wheel61",
			"translation":[
				0,
				0,
				-4.230647087097168
			]
		},
		{
			"children":[
				8,
				9,
				10,
				11,
				12,
				13,
				14
			],
			"name":"Rover_LOD1",
			"translation":[
				0,
				0,
				4.230647087097168
			]
		},
		{
			"mesh":14,
			"name":"Chassi2",
			"translation":[
				0,
				0,
				0.06781864166259766
			]
		},
		{
			"mesh":15,
			"name":"Wheel12"
		},
		{
			"mesh":16,
			"name":"Wheel22"
		},
		{
			"mesh":17,
			"name":"Wheel32"
		},
		{
			"mesh":18,
			"name":"Wheel42"
		},
		{
			"mesh":19,
			"name":"Wheel52"
		},
		{
			"mesh":20,
			"name":"Wheel62"
		},
		{
			"children":[
				16,
				17,
				18,
				19,
				20,
				21,
				22
			],
			"name":"Rover_LOD2"
		}
	],
	"materials":[
		{
			"doubleSided":true,
			"name":"WhiteMetal",
			"pbrMetallicRoughness":{
				"metallicFactor":0.3719298541545868,
				"roughnessFactor":0.5508772134780884
			}
		},
		{
			"doubleSided":true,
			"name":"BlackMetal",
			"pbrMetallicRoughness":{
				"baseColorFactor":[
					0.2585448920726776,
					0.2585448920726776,
					0.2585448920726776,
					1
				],
				"roughnessFactor":0.6456140279769897
			}
		},
		{
			"doubleSided":true,
			"name":"Wheels",
			"pbrMetallicRoughness":{
				"baseColorFactor":[
					0,
					0,
					0,
					1
				],
				"metallicFactor":0,
				"roughnessFactor":0.821052610874176
			}
		}
	],
	"meshes":[
		{
			"name":"Chassi0",
			"primitives":[
				{
					"attributes":{
						"POSITION":0,
						"NORMAL":1,
						"TEXCOORD_0":2,
						"TANGENT":3
					},
					"indices":4,
					"material":0
				},
				{
					"attributes":{
						"POSITION":5,
						"NORMAL":6,
						"TEXCOORD_0":7,
						"TANGENT":8
					},
					"indices":9,
					"material":1
				}
			]
		},
		{
			"name":"Wheel10",
			"primitives":[
				{
					"attributes":{
						"POSITION":10,
						"NORMAL":11,
						"TEXCOORD_0":12,
						"TANGENT":13
					},
					"indices":14,
					"material":2
				}
			]
		},
		{
			"name":"Wheel20",
			"primitives":[
				{
					"attributes":{
						"POSITION":15,
						"NORMAL":16,
						"TEXCOORD_0":17,
						"TANGENT":18
					},
					"indices":19,
					"material":2
				}
			]
		},
		{
			"name":"Wheel30",
			"primitives":[
				{
					"attributes":{
						"POSITION":20,
						"NORMAL":21,
						"TEXCOORD_0":22,
						"TANGENT":23
					},
					"indices":24,
					"material":2
				}
			]
		},
		{
			"name":"Wheel40",
			"primitives":[
				{
					"attributes":{
						"POSITION":25,
						"NORMAL":26,
						"TEXCOORD_0":27,
						"TANGENT":28
					},
					"indices":29,
					"material":2
				}
			]
		},
		{
			"name":"Wheel50",
			"primitives":[
				{
					"attributes":{
						"POSITION":30,
						"NORMAL":31,
						"TEXCOORD_0":32,
						"TANGENT":33
					},
					"indices":34,
					"material":2
				}
			]
		},
		{
			"name":"Wheel60",
			"primitives":[
				{
					"attributes":{
						"POSITION":35,
						"NORMAL":36,
						"TEXCOORD_0":37,
						"TANGENT":38
					},
					"indices":39,
					"material":2
				}
			]
		},
		{
			"name":"Chass1",
			"primitives":[
				{
					"attributes":{
						"POSITION":40,
						"NORMAL":41,
						"TEXCOORD_0":42,
						"TANGENT":43
					},
					"indices":44,
					"material":0
				},
				{
					"attributes":{
						"POSITION":45,
						"NORMAL":46,
						"TEXCOORD_0":47,
						"TANGENT":48
					},
					"indices":49,
					"material":1
				}
			]
		},
		{
			"name":"Wheel11",
			"primitives":[
				{
					"attributes":{
						"POSITION":50,
						"NORMAL":51,
						"TEXCOORD_0":52,
						"TANGENT":53
					},
					"indices":54,
					"material":2
				}
			]
		},
		{
			"name":"Wheel21",
			"primitives":[
				{
					"attributes":{
						"POSITION":55,
						"NORMAL":56,
						"TEXCOORD_0":57,
						"TANGENT":58
					},
					"indices":59,
					"material":2
				}
			]
		},
		{
			"name":"Wheel31",
			"primitives":[
				{
					"attributes":{
						"POSITION":60,
						"NORMAL":61,
						"TEXCOORD_0":62,
						"TANGENT":63
					},
					"indices":64,
					"material":2
				}
			]
		},
		{
			"name":"Wheel41",
			"primitives":[
				{
					"attributes":{
						"POSITION":65,
						"NORMAL":66,
						"TEXCOORD_0":67,
						"TANGENT":68
					},
					"indices":69,
					"material":2
				}
			]
		},
		{
			"name":"Wheel51",
			"primitives":[
				{
					"attributes":{
						"POSITION":70,
						"NORMAL":71,
						"TEXCOORD_0":72,
						"TANGENT":73
					},
					"indices":74,
					"material":2
				}
			]
		},
		{
			"name":"Wheel61",
			"primitives":[
				{
					"attributes":{
						"POSITION":75,
						"NORMAL":76,
						"TEXCOORD_0":77,
						"TANGENT":78
					},
					"indices":79,
					"material":2
				}
			]
		},
		{
			"name":"Chassi2",
			"primitives":[
				{
					"attributes":{
						"POSITION":80,
						"NORMAL":81,
						"TEXCOORD_0":82,
						"TANGENT":83
					},
					"indices":84,
					"material":0
				},
				{
					"attributes":{
						"POSITION":85,
						"NORMAL":86,
						"TEXCOORD_0":87,
						"TANGENT":88
					},
					"indices":89,
					"material":1
				}
			]
		},
		{
			"name":"Wheel12",
			"primitives":[
				{
					"attributes":{
						"POSITION":90,
						"NORMAL":91,
						"TEXCOORD_0":92,
						"TANGENT":93
					},
					"indices":94,
					"material":2
				}
			]
		},
		{
			"name":"Wheel22",
			"primitives":[
				{
					"attributes":{
						"POSITION":95,
						"NORMAL":96,
						"TEXCOORD_0":97,
						"TANGENT":98
					},
					"indices":94,
					"material":2
				}
			]
		},
		{
			"name":"Wheel32",
			"primitives":[
				{
					"attributes":{
						"POSITION":99,
						"NORMAL":100,
						"TEXCOORD_0":101,
						"TANGENT":102
					},
					"indices":94,
					"material":2
				}
			]
		},
		{
			"name":"Wheel42",
			"primitives":[
				{
					"attributes":{
						"POSITION":103,
						"NORMAL":104,
						"TEXCOORD_0":105,
						"TANGENT":106
					},
					"indices":94,
					"material":2
				}
			]
		},
		{
			"name":"Wheel52",
			"primitives":[
				{
					"attributes":{
						"POSITION":107,
						"NORMAL":108,
						"TEXCOORD_0":109,
						"TANGENT":110
					},
					"indices":94,
					"material":2
				}
			]
		},
		{
			"name":"Wheel62",
			"primitives":[
				{
					"attributes":{
						"POSITION":111,
						"NORMAL":112,
						"TEXCOORD_0":113,
						"TANGENT":114
					},
					"indices":94,
					"material":2
				}
			]
		}
	],
	"accessors":[
		{
			"bufferView":0,
			"componentType":5126,
			"count":388,
			"max":[
				1.2294132709503174,
				0.5234581232070923,
				0.5999992489814758
			],
			"min":[
				-1.3913568258285522,
				-0.871808648109436,
				-0.6000006198883057
			],
			"type":"VEC3"
		},
		{
			"bufferView":1,
			"componentType":5126,
			"count":388,
			"type":"VEC3"
		},
		{
			"bufferView":2,
			"componentType":5126,
			"count":388,
			"type":"VEC2"
		},
		{
			"bufferView":3,
			"componentType":5126,
			"count":388,
			"type":"VEC4"
		},
		{
			"bufferView":4,
			"componentType":5123,
			"count":636,
			"type":"SCALAR"
		},
		{
			"bufferView":5,
			"componentType":5126,
			"count":2440,
			"max":[
				0.5489686131477356,
				0.2646242082118988,
				1.018594741821289
			],
			"min":[
				-1.614654779434204,
				-0.7697145342826843,
				-1.0113886594772339
			],
			"type":"VEC3"
		},
		{
			"bufferView":6,
			"componentType":5126,
			"count":2440,
			"type":"VEC3"
		},
		{
			"bufferView":7,
			"componentType":5126,
			"count":2440,
			"type":"VEC2"
		},
		{
			"bufferView":8,
			"componentType":5126,
			"count":2440,
			"type":"VEC4"
		},
		{
			"bufferView":9,
			"componentType":5123,
			"count":4116,
			"type":"SCALAR"
		},
		{
			"bufferView":10,
			"componentType":5126,
			"count":1475,
			"max":[
				1.3436797857284546,
				-0.2507801055908203,
				9.736955642700195
			],
			"min":[
				0.8576363921165466,
				-0.7369946837425232,
				9.513402938842773
			],
			"type":"VEC3"
		},
		{
			"bufferView":11,
			"componentType":5126,
			"count":1475,
			"type":"VEC3"
		},
		{
			"bufferView":12,
			"componentType":5126,
			"count":1475,
			"type":"VEC2"
		},
		{
			"bufferView":13,
			"componentType":5126,
			"count":1475,
			"type":"VEC4"
		},
		{
			"bufferView":14,
			"componentType":5123,
			"count":2100,
			"type":"SCALAR"
		},
		{
			"bufferView":15,
			"componentType":5126,
			"count":1453,
			"max":[
				1.3439273834228516,
				-0.2507801055908203,
				7.75278902053833
			],
			"min":[
				0.8578839302062988,
				-0.7369946837425232,
				7.529237270355225
			],
			"type":"VEC3"
		},
		{
			"bufferView":16,
			"componentType":5126,
			"count":1453,
			"type":"VEC3"
		},
		{
			"bufferView":17,
			"componentType":5126,
			"count":1453,
			"type":"VEC2"
		},
		{
			"bufferView":18,
			"componentType":5126,
			"count":1453,
			"type":"VEC4"
		},
		{
			"bufferView":19,
			"componentType":5123,
			"count":2100,
			"type":"SCALAR"
		},
		{
			"bufferView":20,
			"componentType":5126,
			"count":1469,
			"max":[
				0.4099867641925812,
				-0.2507801055908203,
				9.736955642700195
			],
			"min":[
				-0.07605661451816559,
				-0.7369946837425232,
				9.513402938842773
			],
			"type":"VEC3"
		},
		{
			"bufferView":21,
			"componentType":5126,
			"count":1469,
			"type":"VEC3"
		},
		{
			"bufferView":22,
			"componentType":5126,
			"count":1469,
			"type":"VEC2"
		},
		{
			"bufferView":23,
			"componentType":5126,
			"count":1469,
			"type":"VEC4"
		},
		{
			"bufferView":24,
			"componentType":5123,
			"count":2100,
			"type":"SCALAR"
		},
		{
			"bufferView":25,
			"componentType":5126,
			"count":1459,
			"max":[
				0.41023436188697815,
				-0.2507801055908203,
				7.75278902053833
			],
			"min":[
				-0.07580910623073578,
				-0.7369946837425232,
				7.529237270355225
			],
			"type":"VEC3"
		},
		{
			"bufferView":26,
			"componentType":5126,
			"count":1459,
			"type":"VEC3"
		},
		{
			"bufferView":27,
			"componentType":5126,
			"count":1459,
			"type":"VEC2"
		},
		{
			"bufferView":28,
			"componentType":5126,
			"count":1459,
			"type":"VEC4"
		},
		{
			"bufferView":29,
			"componentType":5123,
			"count":2100,
			"type":"SCALAR"
		},
		{
			"bufferView":30,
			"componentType":5126,
			"count":1468,
			"max":[
				-0.7337241768836975,
				-0.2507801055908203,
				9.736955642700195
			],
			"min":[
				-1.2197675704956055,
				-0.7369946837425232,
				9.513402938842773
			],
			"type":"VEC3"
		},
		{
			"bufferView":31,
			"componentType":5126,
			"count":1468,
			"type":"VEC3"
		},
		{
			"bufferView":32,
			"componentType":5126,
			"count":1468,
			"type":"VEC2"
		},
		{
			"bufferView":33,
			"componentType":5126,
			"count":1468,
			"type":"VEC4"
		},
		{
			"bufferView":34,
			"componentType":5123,
			"count":2100,
			"type":"SCALAR"
		},
		{
			"bufferView":35,
			"componentType":5126,
			"count":1453,
			"max":[
				-0.7334765791893005,
				-0.2507801055908203,
				7.75278902053833
			],
			"min":[
				-1.219520092010498,
				-0.7369946837425232,
				7.529237270355225
			],
			"type":"VEC3"
		},
		{
			"bufferView":36,
			"componentType":5126,
			"count":1453,
			"type":"VEC3"
		},
		{
			"bufferView":37,
			"componentType":5126,
			"count":1453,
			"type":"VEC2"
		},
		{
			"bufferView":38,
			"componentType":5126,
			"count":1453,
			"type":"VEC4"
		},
		{
			"bufferView":39,
			"componentType":5123,
			"count":2100,
			"type":"SCALAR"
		},
		{
			"bufferView":40,
			"componentType":5126,
			"count":148,
			"max":[
				1.8151886463165283,
				0.7579019665718079,
				0.6000000238418579
			],
			"min":[
				-0.800000011920929,
				-0.6373650431632996,
				-0.6000000238418579
			],
			"type":"VEC3"
		},
		{
			"bufferView":41,
			"componentType":5126,
			"count":148,
			"type":"VEC3"
		},
		{
			"bufferView":42,
			"componentType":5126,
			"count":148,
			"type":"VEC2"
		},
		{
			"bufferView":43,
			"componentType":5126,
			"count":148,
			"type":"VEC4"
		},
		{
			"bufferView":44,
			"componentType":5123,
			"count":216,
			"type":"SCALAR"
		},
		{
			"bufferView":45,
			"componentType":5126,
			"count":1574,
			"max":[
				1.1403257846832275,
				0.04666658118367195,
				1.0157966613769531
			],
			"min":[
				-1.0232980251312256,
				-0.5352709293365479,
				-1.0141870975494385
			],
			"type":"VEC3"
		},
		{
			"bufferView":46,
			"componentType":5126,
			"count":1574,
			"type":"VEC3"
		},
		{
			"bufferView":47,
			"componentType":5126,
			"count":1574,
			"type":"VEC2"
		},
		{
			"bufferView":48,
			"componentType":5126,
			"count":1574,
			"type":"VEC4"
		},
		{
			"bufferView":49,
			"componentType":5123,
			"count":2880,
			"type":"SCALAR"
		},
		{
			"bufferView":50,
			"componentType":5126,
			"count":204,
			"max":[
				1.3367557525634766,
				-0.25796040892601013,
				5.376903057098389
			],
			"min":[
				0.8648080825805664,
				-0.7299079895019531,
				5.153351306915283
			],
			"type":"VEC3"
		},
		{
			"bufferView":51,
			"componentType":5126,
			"count":204,
			"type":"VEC3"
		},
		{
			"bufferView":52,
			"componentType":5126,
			"count":204,
			"type":"VEC2"
		},
		{
			"bufferView":53,
			"componentType":5126,
			"count":204,
			"type":"VEC4"
		},
		{
			"bufferView":54,
			"componentType":5123,
			"count":372,
			"type":"SCALAR"
		},
		{
			"bufferView":55,
			"componentType":5126,
			"count":210,
			"max":[
				1.3367557525634766,
				-0.25796040892601013,
				3.3927369117736816
			],
			"min":[
				0.8648080825805664,
				-0.7299079895019531,
				3.169185161590576
			],
			"type":"VEC3"
		},
		{
			"bufferView":56,
			"componentType":5126,
			"count":210,
			"type":"VEC3"
		},
		{
			"bufferView":57,
			"componentType":5126,
			"count":210,
			"type":"VEC2"
		},
		{
			"bufferView":58,
			"componentType":5126,
			"count":210,
			"type":"VEC4"
		},
		{
			"bufferView":59,
			"componentType":5123,
			"count":372,
			"type":"SCALAR"
		},
		{
			"bufferView":60,
			"componentType":5126,
			"count":205,
			"max":[
				0.4225996136665344,
				-0.25796040892601013,
				5.376903057098389
			],
			"min":[
				-0.049348101019859314,
				-0.7299079895019531,
				5.153351306915283
			],
			"type":"VEC3"
		},
		{
			"bufferView":61,
			"componentType":5126,
			"count":205,
			"type":"VEC3"
		},
		{
			"bufferView":62,
			"componentType":5126,
			"count":205,
			"type":"VEC2"
		},
		{
			"bufferView":63,
			"componentType":5126,
			"count":205,
			"type":"VEC4"
		},
		{
			"bufferView":64,
			"componentType":5123,
			"count":372,
			"type":"SCALAR"
		},
		{
			"bufferView":65,
			"componentType":5126,
			"count":203,
			"max":[
				0.4225996136665344,
				-0.25796040892601013,
				3.3927369117736816
			],
			"min":[
				-0.049348101019859314,
				-0.7299079895019531,
				3.169185161590576
			],
			"type":"VEC3"
		},
		{
			"bufferView":66,
			"componentType":5126,
			"count":203,
			"type":"VEC3"
		},
		{
			"bufferView":67,
			"componentType":5126,
			"count":203,
			"type":"VEC2"
		},
		{
			"bufferView":68,
			"componentType":5126,
			"count":203,
			"type":"VEC4"
		},
		{
			"bufferView":69,
			"componentType":5123,
			"count":372,
			"type":"SCALAR"
		},
		{
			"bufferView":70,
			"componentType":5126,
			"count":207,
			"max":[
				-0.7531311511993408,
				-0.25796040892601013,
				5.376903057098389
			],
			"min":[
				-1.225078821182251,
				-0.7299079895019531,
				5.153351306915283
			],
			"type":"VEC3"
		},
		{
			"bufferView":71,
			"componentType":5126,
			"count":207,
			"type":"VEC3"
		},
		{
			"bufferView":72,
			"componentType":5126,
			"count":207,
			"type":"VEC2"
		},
		{
			"bufferView":73,
			"componentType":5126,
			"count":207,
			"type":"VEC4"
		},
		{
			"bufferView":74,
			"componentType":5123,
			"count":372,
			"type":"SCALAR"
		},
		{
			"bufferView":75,
			"componentType":5126,
			"count":208,
			"max":[
				-0.7531311511993408,
				-0.25796040892601013,
				3.3927369117736816
			],
			"min":[
				-1.225078821182251,
				-0.7299079895019531,
				3.169185161590576
			],
			"type":"VEC3"
		},
		{
			"bufferView":76,
			"componentType":5126,
			"count":208,
			"type":"VEC3"
		},
		{
			"bufferView":77,
			"componentType":5126,
			"count":208,
			"type":"VEC2"
		},
		{
			"bufferView":78,
			"componentType":5126,
			"count":208,
			"type":"VEC4"
		},
		{
			"bufferView":79,
			"componentType":5123,
			"count":372,
			"type":"SCALAR"
		},
		{
			"bufferView":80,
			"componentType":5126,
			"count":124,
			"max":[
				1.8151886463165283,
				0.757594883441925,
				0.6000000238418579
			],
			"min":[
				-0.800000011920929,
				-0.6373650431632996,
				-0.6000000238418579
			],
			"type":"VEC3"
		},
		{
			"bufferView":81,
			"componentType":5126,
			"count":124,
			"type":"VEC3"
		},
		{
			"bufferView":82,
			"componentType":5126,
			"count":124,
			"type":"VEC2"
		},
		{
			"bufferView":83,
			"componentType":5126,
			"count":124,
			"type":"VEC4"
		},
		{
			"bufferView":84,
			"componentType":5123,
			"count":168,
			"type":"SCALAR"
		},
		{
			"bufferView":85,
			"componentType":5126,
			"count":428,
			"max":[
				1.1403257846832275,
				-0.010434544645249844,
				1.0293171405792236
			],
			"min":[
				-1.0232980251312256,
				-0.5352709293365479,
				-1.0006663799285889
			],
			"type":"VEC3"
		},
		{
			"bufferView":86,
			"componentType":5126,
			"count":428,
			"type":"VEC3"
		},
		{
			"bufferView":87,
			"componentType":5126,
			"count":428,
			"type":"VEC2"
		},
		{
			"bufferView":88,
			"componentType":5126,
			"count":428,
			"type":"VEC4"
		},
		{
			"bufferView":89,
			"componentType":5123,
			"count":648,
			"type":"SCALAR"
		},
		{
			"bufferView":90,
			"componentType":5126,
			"count":192,
			"max":[
				1.3367557525634766,
				-0.25796040892601013,
				1.1633362770080566
			],
			"min":[
				0.8648080825805664,
				-0.7299079895019531,
				0.9397845268249512
			],
			"type":"VEC3"
		},
		{
			"bufferView":91,
			"componentType":5126,
			"count":192,
			"type":"VEC3"
		},
		{
			"bufferView":92,
			"componentType":5126,
			"count":192,
			"type":"VEC2"
		},
		{
			"bufferView":93,
			"componentType":5126,
			"count":192,
			"type":"VEC4"
		},
		{
			"bufferView":94,
			"componentType":5123,
			"count":372,
			"type":"SCALAR"
		},
		{
			"bufferView":95,
			"componentType":5126,
			"count":192,
			"max":[
				1.3367557525634766,
				-0.25796040892601013,
				-0.8208298683166504
			],
			"min":[
				0.8648080825805664,
				-0.7299079895019531,
				-1.0443816184997559
			],
			"type":"VEC3"
		},
		{
			"bufferView":96,
			"componentType":5126,
			"count":192,
			"type":"VEC3"
		},
		{
			"bufferView":97,
			"componentType":5126,
			"count":192,
			"type":"VEC2"
		},
		{
			"bufferView":98,
			"componentType":5126,
			"count":192,
			"type":"VEC4"
		},
		{
			"bufferView":99,
			"componentType":5126,
			"count":192,
			"max":[
				0.4225996136665344,
				-0.25796040892601013,
				1.1633362770080566
			],
			"min":[
				-0.049348101019859314,
				-0.7299079895019531,
				0.9397845268249512
			],
			"type":"VEC3"
		},
		{
			"bufferView":100,
			"componentType":5126,
			"count":192,
			"type":"VEC3"
		},
		{
			"bufferView":101,
			"componentType":5126,
			"count":192,
			"type":"VEC2"
		},
		{
			"bufferView":102,
			"componentType":5126,
			"count":192,
			"type":"VEC4"
		},
		{
			"bufferView":103,
			"componentType":5126,
			"count":192,
			"max":[
				0.4225996136665344,
				-0.25796040892601013,
				-0.8208298683166504
			],
			"min":[
				-0.049348101019859314,
				-0.7299079895019531,
				-1.0443816184997559
			],
			"type":"VEC3"
		},
		{
			"bufferView":104,
			"componentType":5126,
			"count":192,
			"type":"VEC3"
		},
		{
			"bufferView":105,
			"componentType":5126,
			"count":192,
			"type":"VEC2"
		},
		{
			"bufferView":106,
			"componentType":5126,
			"count":192,
			"type":"VEC4"
		},
		{
			"bufferView":107,
			"componentType":5126,
			"count":192,
			"max":[
				-0.7531311511993408,
				-0.25796040892601013,
				1.1633362770080566
			],
			"min":[
				-1.225078821182251,
				-0.7299079895019531,
				0.9397845268249512
			],
			"type":"VEC3"
		},
		{
			"bufferView":108,
			"componentType":5126,
			"count":192,
			"type":"VEC3"
		},
		{
			"bufferView":109,
			"componentType":5126,
			"count":192,
			"type":"VEC2"
		},
		{
			"bufferView":110,
			"componentType":5126,
			"count":192,
			"type":"VEC4"
		},
		{
			"bufferView":111,
			"componentType":5126,
			"count":192,
			"max":[
				-0.7531311511993408,
				-0.25796040892601013,
				-0.8208298683166504
			],
			"min":[
				-1.225078821182251,
				-0.7299079895019531,
				-1.0443816184997559
			],
			"type":"VEC3"
		},
		{
			"bufferView":112,
			"componentType":5126,
			"count":192,
			"type":"VEC3"
		},
		{
			"bufferView":113,
			"componentType":5126,
			"count":192,
			"type":"VEC2"
		},
		{
			"bufferView":114,
			"componentType":5126,
			"count":192,
			"type":"VEC4"
		}
	],
	"bufferViews":[
		{
			"buffer":0,
			"byteLength":4656,
			"byteOffset":0,
			"target":34962
		},
		{
			"buffer":0,
			"byteLength":4656,
			"byteOffset":4656,
			"target":34962
		},
		{
			"buffer":0,
			"byteLength":3104,
			"byteOffset":9312,
			"target":34962
		},
		{
			"buffer":0,
			"byteLength":6208,
			"byteOffset":12416,
			"target":34962
		},
		{
			"buffer":0,
			"byteLength":1272,
			"byteOffset":18624,
			"target":34963
		},
		{
			"buffer":0,
			"byteLength":29280,
			"byteOffset":19896,
			"target":34962
		},
		{
			"buffer":0,
			"byteLength":29280,
			"byteOffset":49176,
			"target":34962
		},
		{
			"buffer":0,
			"byteLength":19520,
			"byteOffset":78456,
			"target":34962
		},
		{
			"buffer":0,
			"byteLength":39040,
			"byteOffset":97976,
			"target":34962
		},
		{
			"buffer":0,
			"byteLength":8232,
			"byteOffset":137016,
			"target":34963
		},
		{
			"buffer":0,
			"byteLength":17700,
			"byteOffset":145248,
			"target":34962
		},
		{
			"buffer":0,
			"byteLength":17700,
			"byteOffset":162948,
			"target":34962
		},
		{
			"buffer":0,
			"byteLength":11800,
			"byteOffset":180648,
			"target":34962
		},
		{
			"buffer":0,
			"byteLength":23600,
			"byteOffset":192448,
			"target":34962
		},
		{
			"buffer":0,
			"byteLength":4200,
			"byteOffset":216048,
			"target":34963
		},
		{
			"buffer":0,
			"byteLength":17436,
			"byteOffset":220248,
			"target":34962
		},
		{
			"buffer":0,
			"byteLength":17436,
			"byteOffset":237684,
			"target":34962
		},
		{
			"buffer":0,
			"byteLength":11624,
			"byteOffset":255120,
			"target":34962
		},
		{
			"buffer":0,
			"byteLength":23248,
			"byteOffset":266744,
			"target":34962
		},
		{
			"buffer":0,
			"byteLength":4200,
			"byteOffset":289992,
			"target":34963
		},
		{
			"buffer":0,
			"byteLength":17628,
			"byteOffset":294192,
			"target":34962
		},
		{
			"buffer":0,
			"byteLength":17628,
			"byteOffset":311820,
			"target":34962
		},
		{
			"buffer":0,
			"byteLength":11752,
			"byteOffset":329448,
			"target":34962
		},
		{
			"buffer":0,
			"byteLength":23504,
			"byteOffset":341200,
			"target":34962
		},
		{
			"buffer":0,
			"byteLength":4200,
			"byteOffset":364704,
			"target":34963
		},
		{
			"buffer":0,
			"byteLength":17508,
			"byteOffset":368904,
			"target":34962
		},
		{
			"buffer":0,
			"byteLength":17508,
			"byteOffset":386412,
			"target":34962
		},
		{
			"buffer":0,
			"byteLength":11672,
			"byteOffset":403920,
			"target":34962
		},
		{
			"buffer":0,
			"byteLength":23344,
			"byteOffset":415592,
			"target":34962
		},
		{
			"buffer":0,
			"byteLength":4200,
			"byteOffset":438936,
			"target":34963
		},
		{
			"buffer":0,
			"byteLength":17616,
			"byteOffset":443136,
			"target":34962
		},
		{
			"buffer":0,
			"byteLength":17616,
			"byteOffset":460752,
			"target":34962
		},
		{
			"buffer":0,
			"byteLength":11744,
			"byteOffset":478368,
			"target":34962
		},
		{
			"buffer":0,
			"byteLength":23488,
			"byteOffset":490112,
			"target":34962
		},
		{
			"buffer":0,
			"byteLength":4200,
			"byteOffset":513600,
			"target":34963
		},
		{
			"buffer":0,
			"byteLength":17436,
			"byteOffset":517800,
			"target":34962
		},
		{
			"buffer":0,
			"byteLength":17436,
			"byteOffset":535236,
			"target":34962
		},
		{
			"buffer":0,
			"byteLength":11624,
			"byteOffset":552672,
			"target":34962
		},
		{
			"buffer":0,
			"byteLength":23248,
			"byteOffset":564296,
			"target":34962
		},
		{
			"buffer":0,
			"byteLength":4200,
			"byteOffset":587544,
			"target":34963
		},
		{
			"buffer":0,
			"byteLength":1776,
			"byteOffset":591744,
			"target":34962
		},
		{
			"buffer":0,
			"byteLength":1776,
			"byteOffset":593520,
			"target":34962
		},
		{
			"buffer":0,
			"byteLength":1184,
			"byteOffset":595296,
			"target":34962
		},
		{
			"buffer":0,
			"byteLength":2368,
			"byteOffset":596480,
			"target":34962
		},
		{
			"buffer":0,
			"byteLength":432,
			"byteOffset":598848,
			"target":34963
		},
		{
			"buffer":0,
			"byteLength":18888,
			"byteOffset":599280,
			"target":34962
		},
		{
			"buffer":0,
			"byteLength":18888,
			"byteOffset":618168,
			"target":34962
		},
		{
			"buffer":0,
			"byteLength":12592,
			"byteOffset":637056,
			"target":34962
		},
		{
			"buffer":0,
			"byteLength":25184,
			"byteOffset":649648,
			"target":34962
		},
		{
			"buffer":0,
			"byteLength":5760,
			"byteOffset":674832,
			"target":34963
		},
		{
			"buffer":0,
			"byteLength":2448,
			"byteOffset":680592,
			"target":34962
		},
		{
			"buffer":0,
			"byteLength":2448,
			"byteOffset":683040,
			"target":34962
		},
		{
			"buffer":0,
			"byteLength":1632,
			"byteOffset":685488,
			"target":34962
		},
		{
			"buffer":0,
			"byteLength":3264,
			"byteOffset":687120,
			"target":34962
		},
		{
			"buffer":0,
			"byteLength":744,
			"byteOffset":690384,
			"target":34963
		},
		{
			"buffer":0,
			"byteLength":2520,
			"byteOffset":691128,
			"target":34962
		},
		{
			"buffer":0,
			"byteLength":2520,
			"byteOffset":693648,
			"target":34962
		},
		{
			"buffer":0,
			"byteLength":1680,
			"byteOffset":696168,
			"target":34962
		},
		{
			"buffer":0,
			"byteLength":3360,
			"byteOffset":697848,
			"target":34962
		},
		{
			"buffer":0,
			"byteLength":744,
			"byteOffset":701208,
			"target":34963
		},
		{
			"buffer":0,
			"byteLength":2460,
			"byteOffset":701952,
			"target":34962
		},
		{
			"buffer":0,
			"byteLength":2460,
			"byteOffset":704412,
			"target":34962
		},
		{
			"buffer":0,
			"byteLength":1640,
			"byteOffset":706872,
			"target":34962
		},
		{
			"buffer":0,
			"byteLength":3280,
			"byteOffset":708512,
			"target":34962
		},
		{
			"buffer":0,
			"byteLength":744,
			"byteOffset":711792,
			"target":34963
		},
		{
			"buffer":0,
			"byteLength":2436,
			"byteOffset":712536,
			"target":34962
		},
		{
			"buffer":0,
			"byteLength":2436,
			"byteOffset":714972,
			"target":34962
		},
		{
			"buffer":0,
			"byteLength":1624,
			"byteOffset":717408,
			"target":34962
		},
		{
			"buffer":0,
			"byteLength":3248,
			"byteOffset":719032,
			"target":34962
		},
		{
			"buffer":0,
			"byteLength":744,
			"byteOffset":722280,
			"target":34963
		},
		{
			"buffer":0,
			"byteLength":2484,
			"byteOffset":723024,
			"target":34962
		},
		{
			"buffer":0,
			"byteLength":2484,
			"byteOffset":725508,
			"target":34962
		},
		{
			"buffer":0,
			"byteLength":1656,
			"byteOffset":727992,
			"target":34962
		},
		{
			"buffer":0,
			"byteLength":3312,
			"byteOffset":729648,
			"target":34962
		},
		{
			"buffer":0,
			"byteLength":744,
			"byteOffset":732960,
			"target":34963
		},
		{
			"buffer":0,
			"byteLength":2496,
			"byteOffset":733704,
			"target":34962
		},
		{
			"buffer":0,
			"byteLength":2496,
			"byteOffset":736200,
			"target":34962
		},
		{
			"buffer":0,
			"byteLength":1664,
			"byteOffset":738696,
			"target":34962
		},
		{
			"buffer":0,
			"byteLength":3328,
			"byteOffset":740360,
			"target":34962
		},
		{
			"buffer":0,
			"byteLength":744,
			"byteOffset":743688,
			"target":34963
		},
		{
			"buffer":0,
			"byteLength":1488,
			"byteOffset":744432,
			"target":34962
		},
		{
			"buffer":0,
			"byteLength":1488,
			"byteOffset":745920,
			"target":34962
		},
		{
			"buffer":0,
			"byteLength":992,
			"byteOffset":747408,
			"target":34962
		},
		{
			"buffer":0,
			"byteLength":1984,
			"byteOffset":748400,
			"target":34962
		},
		{
			"buffer":0,
			"byteLength":336,
			"byteOffset":750384,
			"target":34963
		},
		{
			"buffer":0,
			"byteLength":5136,
			"byteOffset":750720,
			"target":34962
		},
		{
			"buffer":0,
			"byteLength":5136,
			"byteOffset":755856,
			"target":34962
		},
		{
			"buffer":0,
			"byteLength":3424,
			"byteOffset":760992,
			"target":34962
		},
		{
			"buffer":0,
			"byteLength":6848,
			"byteOffset":764416,
			"target":34962
		},
		{
			"buffer":0,
			"byteLength":1296,
			"byteOffset":771264,
			"target":34963
		},
		{
			"buffer":0,
			"byteLength":2304,
			"byteOffset":772560,
			"target":34962
		},
		{
			"buffer":0,
			"byteLength":2304,
			"byteOffset":774864,
			"target":34962
		},
		{
			"buffer":0,
			"byteLength":1536,
			"byteOffset":777168,
			"target":34962
		},
		{
			"buffer":0,
			"byteLength":3072,
			"byteOffset":778704,
			"target":34962
		},
		{
			"buffer":0,
			"byteLength":744,
			"byteOffset":781776,
			"target":34963
		},
		{
			"buffer":0,
			"byteLength":2304,
			"byteOffset":782520,
			"target":34962
		},
		{
			"buffer":0,
			"byteLength":2304,
			"byteOffset":784824,
			"target":34962
		},
		{
			"buffer":0,
			"byteLength":1536,
			"byteOffset":787128,
			"target":34962
		},
		{
			"buffer":0,
			"byteLength":3072,
			"byteOffset":788664,
			"target":34962
		},
		{
			"buffer":0,
			"byteLength":2304,
			"byteOffset":791736,
			"target":34962
		},
		{
			"buffer":0,
			"byteLength":2304,
			"byteOffset":794040,
			"target":34962
		},
		{
			"buffer":0,
			"byteLength":1536,
			"byteOffset":796344,
			"target":34962
		},
		{
			"buffer":0,
			"byteLength":3072,
			"byteOffset":797880,
			"target":34962
		},
		{
			"buffer":0,
			"byteLength":2304,
			"byteOffset":800952,
			"target":34962
		},
		{
			"buffer":0,
			"byteLength":2304,
			"byteOffset":803256,
			"target":34962
		},
		{
			"buffer":0,
			"byteLength":1536,
			"byteOffset":805560,
			"target":34962
		},
		{
			"buffer":0,
			"byteLength":3072,
			"byteOffset":807096,
			"target":34962
		},
		{
			"buffer":0,
			"byteLength":2304,
			"byteOffset":810168,
			"target":34962
		},
		{
			"buffer":0,
			"byteLength":2304,
			"byteOffset":812472,
			"target":34962
		},
		{
			"buffer":0,
			"byteLength":1536,
			"byteOffset":814776,
			"target":34962
		},
		{
			"buffer":0,
			"byteLength":3072,
			"byteOffset":816312,
			"target":34962
		},
		{
			"buffer":0,
			"byteLength":2304,
			"byteOffset":819384,
			"target":34962
		},
		{
			"buffer":0,
			"byteLength":2304,
			"byteOffset":821688,
			"target":34962
		},
		{
			"buffer":0,
			"byteLength":1536,
			"byteOffset":823992,
			"target":34962
		},
		{
			"buffer":0,
			"byteLength":3072,
			"byteOffset":825528,
			"target":34962
		}
	],
	"buffers":[
		{
			"byteLength":828600,
			"uri":"Rover.bin"
		}
	]
}
