{
  "asset": {
    "generator": "Khronos glTF Blender I/O v1.7.33",
    "version": "2.0"
  },
  "scene": 0,
  "scenes": [
    {
      "name": "Scene",
      "nodes": [
        0,
        1
      ]
    }
  ],
  "nodes": [
    {
      "mesh": 0,
      "name": "wooden_bucket_01",
      "translation": [
        -0.00012092795077478513,
        0,
        0.00012092784163542092
      ]
    },
    {
      "mesh": 1,
      "name": "wooden_bucket_01_handle",
      "translation": [
        0,
        0.3211684823036194,
        0.00012092789256712422
      ]
    }
  ],
  "materials": [
    {
      "doubleSided": true,
      "name": "wooden_bucket_01",
      "normalTexture": {
        "index": 0
      },
      "pbrMetallicRoughness": {
        "baseColorTexture": {
          "index": 1
        },
        "metallicRoughnessTexture": {
          "index": 2
        }
      }
    }
  ],
  "meshes": [
    {
      "name": "Cylinder",
      "primitives": [
        {
          "attributes": {
            "POSITION": 0,
            "NORMAL": 1,
            "TEXCOORD_0": 2
          },
          "indices": 3,
          "material": 0
        }
      ]
    },
    {
      "name": "Plane",
      "primitives": [
        {
          "attributes": {
            "POSITION": 4,
            "NORMAL": 5,
            "TEXCOORD_0": 6
          },
          "indices": 7,
          "material": 0
        }
      ]
    }
  ],
  "textures": [
    {
      "sampler": 0,
      "source": 0
    },
    {
      "sampler": 0,
      "source": 1
    },
    {
      "sampler": 0,
      "source": 2
    }
  ],
  "images": [
    {
      "mimeType": "image/jpeg",
      "name": "wooden_bucket_01_nor_gl",
      "uri": "textures/wooden_bucket_01_nor_gl_4k.jpg"
    },
    {
      "mimeType": "image/jpeg",
      "name": "wooden_bucket_01_diff",
      "uri": "textures/wooden_bucket_01_diff_4k.jpg"
    },
    {
      "mimeType": "image/jpeg",
      "name": "wooden_bucket_01_metal-wooden_bucket_01_rough",
      "uri": "textures/wooden_bucket_01_arm_4k.jpg"
    }
  ],
  "accessors": [
    {
      "bufferView": 0,
      "componentType": 5126,
      "count": 3606,
      "max": [
        0.17380821704864502,
        0.3491709232330322,
        0.17213965952396393
      ],
      "min": [
        -0.17317181825637817,
        0.00013674795627593994,
        -0.17008152604103088
      ],
      "type": "VEC3"
    },
    {
      "bufferView": 1,
      "componentType": 5126,
      "count": 3606,
      "type": "VEC3"
    },
    {
      "bufferView": 2,
      "componentType": 5126,
      "count": 3606,
      "type": "VEC2"
    },
    {
      "bufferView": 3,
      "componentType": 5123,
      "count": 13452,
      "type": "SCALAR"
    },
    {
      "bufferView": 4,
      "componentType": 5126,
      "count": 385,
      "max": [
        0.18252430856227875,
        0.22883063554763794,
        0.004410651046782732
      ],
      "min": [
        -0.1844465434551239,
        -0.007601439952850342,
        -0.003766037989407778
      ],
      "type": "VEC3"
    },
    {
      "bufferView": 5,
      "componentType": 5126,
      "count": 385,
      "type": "VEC3"
    },
    {
      "bufferView": 6,
      "componentType": 5126,
      "count": 385,
      "type": "VEC2"
    },
    {
      "bufferView": 7,
      "componentType": 5123,
      "count": 1896,
      "type": "SCALAR"
    }
  ],
  "bufferViews": [
    {
      "buffer": 0,
      "byteLength": 43272,
      "byteOffset": 0
    },
    {
      "buffer": 0,
      "byteLength": 43272,
      "byteOffset": 43272
    },
    {
      "buffer": 0,
      "byteLength": 28848,
      "byteOffset": 86544
    },
    {
      "buffer": 0,
      "byteLength": 26904,
      "byteOffset": 115392
    },
    {
      "buffer": 0,
      "byteLength": 4620,
      "byteOffset": 142296
    },
    {
      "buffer": 0,
      "byteLength": 4620,
      "byteOffset": 146916
    },
    {
      "buffer": 0,
      "byteLength": 3080,
      "byteOffset": 151536
    },
    {
      "buffer": 0,
      "byteLength": 3792,
      "byteOffset": 154616
    }
  ],
  "samplers": [
    {
      "magFilter": 9729,
      "minFilter": 9987
    }
  ],
  "buffers": [
    {
      "byteLength": 158408,
      "uri": "wooden_bucket_01.bin"
    }
  ]
}