{
    "asset" : {
        "generator" : "Khronos glTF Blender I/O v1.7.33",
        "version" : "2.0"
    },
    "scene" : 0,
    "scenes" : [
        {
            "name" : "Scene",
            "nodes" : [
                0
            ]
        }
    ],
    "nodes" : [
        {
            "mesh" : 0,
            "name" : "Cube.003",
            "rotation" : [
                0,
                0,
                -0.0880250483751297,
                0.9961182475090027
            ],
            "scale" : [
                -0.038959916681051254,
                0.20481926202774048,
                0.008954999968409538
            ],
            "translation" : [
                -0.20418302714824677,
                1.0888038873672485,
                0
            ]
        }
    ],
    "materials" : [
        {
            "doubleSided" : true,
            "name" : "StainlessSteel",
            "pbrMetallicRoughness" : {
                "baseColorFactor" : [
                    0.800000011920929,
                    0.800000011920929,
                    0.800000011920929,
                    1
                ],
                "metallicFactor" : 0,
                "roughnessFactor" : 0.5
            }
        }
    ],
    "meshes" : [
        {
            "name" : "Cube.004",
            "primitives" : [
                {
                    "attributes" : {
                        "POSITION" : 0,
                        "NORMAL" : 1,
                        "TANGENT" : 2,
                        "TEXCOORD_0" : 3
                    },
                    "indices" : 4,
                    "material" : 0
                }
            ]
        }
    ],
    "accessors" : [
        {
            "bufferView" : 0,
            "componentType" : 5126,
            "count" : 72,
            "max" : [
                1.662581443786621,
                1.7439630031585693,
                1
            ],
            "min" : [
                -1,
                -1,
                -1
            ],
            "type" : "VEC3"
        },
        {
            "bufferView" : 1,
            "componentType" : 5126,
            "count" : 72,
            "type" : "VEC3"
        },
        {
            "bufferView" : 2,
            "componentType" : 5126,
            "count" : 72,
            "type" : "VEC4"
        },
        {
            "bufferView" : 3,
            "componentType" : 5126,
            "count" : 72,
            "type" : "VEC2"
        },
        {
            "bufferView" : 4,
            "componentType" : 5123,
            "count" : 132,
            "type" : "SCALAR"
        }
    ],
    "bufferViews" : [
        {
            "buffer" : 0,
            "byteLength" : 864,
            "byteOffset" : 0
        },
        {
            "buffer" : 0,
            "byteLength" : 864,
            "byteOffset" : 864
        },
        {
            "buffer" : 0,
            "byteLength" : 1152,
            "byteOffset" : 1728
        },
        {
            "buffer" : 0,
            "byteLength" : 576,
            "byteOffset" : 2880
        },
        {
            "buffer" : 0,
            "byteLength" : 264,
            "byteOffset" : 3456
        }
    ],
    "buffers" : [
        {
            "byteLength" : 3720,
            "uri" : "FlapTest.bin"
        }
    ]
}
