{
    "asset" : {
        "generator" : "Khronos glTF Blender I/O v1.8.19",
        "version" : "2.0"
    },
    "scene" : 0,
    "scenes" : [
        {
            "name" : "Scene",
            "nodes" : [
                0,
                1,
                2,
                3,
                4
            ]
        }
    ],
    "nodes" : [
        {
            "mesh" : 0,
            "name" : "Starship Main Body",
            "scale" : [
                0.24640138447284698,
                0.011103576980531216,
                0.24640138447284698
            ],
            "translation" : [
                -0.009812572970986366,
                -1.128994107246399,
                0
            ]
        },
        {
            "mesh" : 1,
            "name" : "Flap Lower Left",
            "scale" : [
                -0.38655853271484375,
                0.19968320429325104,
                0.008999999612569809
            ],
            "translation" : [
                -0.7596922516822815,
                -0.6299612522125244,
                0.0004937965422868729
            ]
        },
        {
            "mesh" : 2,
            "name" : "Flap Lower Right",
            "scale" : [
                0.38655853271484375,
                0.19968320429325104,
                0.008999999612569809
            ],
            "translation" : [
                0.741802990436554,
                -0.6299612522125244,
                0.0004937965422868729
            ]
        },
        {
            "mesh" : 3,
            "name" : "Flap Upper Left",
            "scale" : [
                -0.38655853271484375,
                0.19968320429325104,
                0.008999999612569809
            ],
            "translation" : [
                -0.6697677969932556,
                1.0970163345336914,
                0.0004937965422868729
            ]
        },
        {
            "mesh" : 4,
            "name" : "Flap Upper Right",
            "scale" : [
                0.38655853271484375,
                0.19968320429325104,
                0.008999999612569809
            ],
            "translation" : [
                0.6495010256767273,
                1.0970163345336914,
                0.0004937965422868729
            ]
        }
    ],
    "materials" : [
        {
            "doubleSided" : true,
            "name" : "StainlessSteel",
            "pbrMetallicRoughness" : {
                "baseColorTexture" : {
                    "index" : 0
                },
                "metallicFactor" : 0.9879999756813049,
                "roughnessFactor" : 0.4880000054836273
            }
        }
    ],
    "meshes" : [
        {
            "name" : "Cylinder.002",
            "primitives" : [
                {
                    "attributes" : {
                        "POSITION" : 0,
                        "NORMAL" : 1,
                        "TANGENT" : 2,
                        "TEXCOORD_0" : 3
                    },
                    "indices" : 4,
                    "material" : 0
                }
            ]
        },
        {
            "name" : "Cube.007",
            "primitives" : [
                {
                    "attributes" : {
                        "POSITION" : 5,
                        "NORMAL" : 6,
                        "TANGENT" : 7,
                        "TEXCOORD_0" : 8
                    },
                    "indices" : 9,
                    "material" : 0
                }
            ]
        },
        {
            "name" : "Cube.006",
            "primitives" : [
                {
                    "attributes" : {
                        "POSITION" : 10,
                        "NORMAL" : 11,
                        "TANGENT" : 12,
                        "TEXCOORD_0" : 13
                    },
                    "indices" : 9,
                    "material" : 0
                }
            ]
        },
        {
            "name" : "Cube.005",
            "primitives" : [
                {
                    "attributes" : {
                        "POSITION" : 14,
                        "NORMAL" : 15,
                        "TANGENT" : 16,
                        "TEXCOORD_0" : 17
                    },
                    "indices" : 18,
                    "material" : 0
                }
            ]
        },
        {
            "name" : "Cube",
            "primitives" : [
                {
                    "attributes" : {
                        "POSITION" : 19,
                        "NORMAL" : 20,
                        "TANGENT" : 21,
                        "TEXCOORD_0" : 22
                    },
                    "indices" : 18,
                    "material" : 0
                }
            ]
        }
    ],
    "textures" : [
        {
            "sampler" : 0,
            "source" : 0
        }
    ],
    "images" : [
        {
            "mimeType" : "image/png",
            "name" : "Albedo",
            "uri" : "Albedo.png"
        }
    ],
    "accessors" : [
        {
            "bufferView" : 0,
            "componentType" : 5126,
            "count" : 2531,
            "max" : [
                1.331246018409729,
                247.86215209960938,
                1
            ],
            "min" : [
                -1.3169583082199097,
                -1.0294342041015625,
                -1
            ],
            "type" : "VEC3"
        },
        {
            "bufferView" : 1,
            "componentType" : 5126,
            "count" : 2531,
            "type" : "VEC3"
        },
        {
            "bufferView" : 2,
            "componentType" : 5126,
            "count" : 2531,
            "type" : "VEC4"
        },
        {
            "bufferView" : 3,
            "componentType" : 5126,
            "count" : 2531,
            "type" : "VEC2"
        },
        {
            "bufferView" : 4,
            "componentType" : 5123,
            "count" : 10314,
            "type" : "SCALAR"
        },
        {
            "bufferView" : 5,
            "componentType" : 5126,
            "count" : 34,
            "max" : [
                -0.5771968364715576,
                1.0389853715896606,
                1
            ],
            "min" : [
                -1.1885721683502197,
                -2.573963165283203,
                -1
            ],
            "type" : "VEC3"
        },
        {
            "bufferView" : 6,
            "componentType" : 5126,
            "count" : 34,
            "type" : "VEC3"
        },
        {
            "bufferView" : 7,
            "componentType" : 5126,
            "count" : 34,
            "type" : "VEC4"
        },
        {
            "bufferView" : 8,
            "componentType" : 5126,
            "count" : 34,
            "type" : "VEC2"
        },
        {
            "bufferView" : 9,
            "componentType" : 5123,
            "count" : 48,
            "type" : "SCALAR"
        },
        {
            "bufferView" : 10,
            "componentType" : 5126,
            "count" : 34,
            "max" : [
                -0.5771968364715576,
                1.0389853715896606,
                1
            ],
            "min" : [
                -1.1885721683502197,
                -2.573963165283203,
                -1
            ],
            "type" : "VEC3"
        },
        {
            "bufferView" : 11,
            "componentType" : 5126,
            "count" : 34,
            "type" : "VEC3"
        },
        {
            "bufferView" : 12,
            "componentType" : 5126,
            "count" : 34,
            "type" : "VEC4"
        },
        {
            "bufferView" : 13,
            "componentType" : 5126,
            "count" : 34,
            "type" : "VEC2"
        },
        {
            "bufferView" : 14,
            "componentType" : 5126,
            "count" : 32,
            "max" : [
                -0.5771968364715576,
                1.0389853715896606,
                1
            ],
            "min" : [
                -1.1885721683502197,
                -1,
                -1
            ],
            "type" : "VEC3"
        },
        {
            "bufferView" : 15,
            "componentType" : 5126,
            "count" : 32,
            "type" : "VEC3"
        },
        {
            "bufferView" : 16,
            "componentType" : 5126,
            "count" : 32,
            "type" : "VEC4"
        },
        {
            "bufferView" : 17,
            "componentType" : 5126,
            "count" : 32,
            "type" : "VEC2"
        },
        {
            "bufferView" : 18,
            "componentType" : 5123,
            "count" : 48,
            "type" : "SCALAR"
        },
        {
            "bufferView" : 19,
            "componentType" : 5126,
            "count" : 32,
            "max" : [
                -0.5771968364715576,
                1.0389853715896606,
                1
            ],
            "min" : [
                -1.1885721683502197,
                -1,
                -1
            ],
            "type" : "VEC3"
        },
        {
            "bufferView" : 20,
            "componentType" : 5126,
            "count" : 32,
            "type" : "VEC3"
        },
        {
            "bufferView" : 21,
            "componentType" : 5126,
            "count" : 32,
            "type" : "VEC4"
        },
        {
            "bufferView" : 22,
            "componentType" : 5126,
            "count" : 32,
            "type" : "VEC2"
        }
    ],
    "bufferViews" : [
        {
            "buffer" : 0,
            "byteLength" : 30372,
            "byteOffset" : 0
        },
        {
            "buffer" : 0,
            "byteLength" : 30372,
            "byteOffset" : 30372
        },
        {
            "buffer" : 0,
            "byteLength" : 40496,
            "byteOffset" : 60744
        },
        {
            "buffer" : 0,
            "byteLength" : 20248,
            "byteOffset" : 101240
        },
        {
            "buffer" : 0,
            "byteLength" : 20628,
            "byteOffset" : 121488
        },
        {
            "buffer" : 0,
            "byteLength" : 408,
            "byteOffset" : 142116
        },
        {
            "buffer" : 0,
            "byteLength" : 408,
            "byteOffset" : 142524
        },
        {
            "buffer" : 0,
            "byteLength" : 544,
            "byteOffset" : 142932
        },
        {
            "buffer" : 0,
            "byteLength" : 272,
            "byteOffset" : 143476
        },
        {
            "buffer" : 0,
            "byteLength" : 96,
            "byteOffset" : 143748
        },
        {
            "buffer" : 0,
            "byteLength" : 408,
            "byteOffset" : 143844
        },
        {
            "buffer" : 0,
            "byteLength" : 408,
            "byteOffset" : 144252
        },
        {
            "buffer" : 0,
            "byteLength" : 544,
            "byteOffset" : 144660
        },
        {
            "buffer" : 0,
            "byteLength" : 272,
            "byteOffset" : 145204
        },
        {
            "buffer" : 0,
            "byteLength" : 384,
            "byteOffset" : 145476
        },
        {
            "buffer" : 0,
            "byteLength" : 384,
            "byteOffset" : 145860
        },
        {
            "buffer" : 0,
            "byteLength" : 512,
            "byteOffset" : 146244
        },
        {
            "buffer" : 0,
            "byteLength" : 256,
            "byteOffset" : 146756
        },
        {
            "buffer" : 0,
            "byteLength" : 96,
            "byteOffset" : 147012
        },
        {
            "buffer" : 0,
            "byteLength" : 384,
            "byteOffset" : 147108
        },
        {
            "buffer" : 0,
            "byteLength" : 384,
            "byteOffset" : 147492
        },
        {
            "buffer" : 0,
            "byteLength" : 512,
            "byteOffset" : 147876
        },
        {
            "buffer" : 0,
            "byteLength" : 256,
            "byteOffset" : 148388
        }
    ],
    "samplers" : [
        {
            "magFilter" : 9729,
            "minFilter" : 9987
        }
    ],
    "buffers" : [
        {
            "byteLength" : 148644,
            "uri" : "Starship.bin"
        }
    ]
}
