{
  "asset": {
    "generator": "Khronos glTF Blender I/O v1.6.16",
    "version": "2.0"
  },
  "scene": 0,
  "scenes": [
    {
      "name": "Scene",
      "nodes": [
        0
      ]
    }
  ],
  "nodes": [
    {
      "mesh": 0,
      "name": "baseball_01"
    }
  ],
  "materials": [
    {
      "doubleSided": true,
      "name": "baseball_01",
      "normalTexture": {
        "index": 0
      },
      "pbrMetallicRoughness": {
        "baseColorTexture": {
          "index": 1
        },
        "metallicFactor": 0,
        "metallicRoughnessTexture": {
          "index": 2
        }
      }
    }
  ],
  "meshes": [
    {
      "name": "Cube.002",
      "primitives": [
        {
          "attributes": {
            "POSITION": 0,
            "NORMAL": 1,
            "TEXCOORD_0": 2
          },
          "indices": 3,
          "material": 0
        }
      ]
    }
  ],
  "textures": [
    {
      "sampler": 0,
      "source": 0
    },
    {
      "sampler": 0,
      "source": 1
    },
    {
      "sampler": 0,
      "source": 2
    }
  ],
  "images": [
    {
      "mimeType": "image/jpeg",
      "name": "baseball_01_nor_gl",
      "uri": "textures/baseball_01_nor_gl_4k.jpg"
    },
    {
      "mimeType": "image/jpeg",
      "name": "baseball_01_diff",
      "uri": "textures/baseball_01_diff_4k.jpg"
    },
    {
      "mimeType": "image/jpeg",
      "name": "baseball_01_rough",
      "uri": "textures/baseball_01_rough_4k.jpg"
    }
  ],
  "accessors": [
    {
      "bufferView": 0,
      "componentType": 5126,
      "count": 7181,
      "max": [
        0.03675895184278488,
        0.037664759904146194,
        0.0375838428735733
      ],
      "min": [
        -0.036758918315172195,
        -0.037664756178855896,
        -0.03758516535162926
      ],
      "type": "VEC3"
    },
    {
      "bufferView": 1,
      "componentType": 5126,
      "count": 7181,
      "type": "VEC3"
    },
    {
      "bufferView": 2,
      "componentType": 5126,
      "count": 7181,
      "type": "VEC2"
    },
    {
      "bufferView": 3,
      "componentType": 5123,
      "count": 32544,
      "type": "SCALAR"
    }
  ],
  "bufferViews": [
    {
      "buffer": 0,
      "byteLength": 86172,
      "byteOffset": 0
    },
    {
      "buffer": 0,
      "byteLength": 86172,
      "byteOffset": 86172
    },
    {
      "buffer": 0,
      "byteLength": 57448,
      "byteOffset": 172344
    },
    {
      "buffer": 0,
      "byteLength": 65088,
      "byteOffset": 229792
    }
  ],
  "samplers": [
    {
      "magFilter": 9729,
      "minFilter": 9987
    }
  ],
  "buffers": [
    {
      "byteLength": 294880,
      "uri": "baseball_01.bin"
    }
  ]
}